<?xml version="1.0" standalone="no"?>
<svg xmlns:xlink="http://www.w3.org/1999/xlink" id="wave" style="transform:rotate(180deg); transition: 0.3s" viewBox="0 0 1440 170" version="1.1" xmlns="http://www.w3.org/2000/svg"><defs><linearGradient id="sw-gradient-0" x1="0" x2="0" y1="1" y2="0"><stop stop-color="rgba(93, 107, 156, 1)" offset="0%"/><stop stop-color="rgba(93, 107, 156, 1)" offset="100%"/></linearGradient></defs><path style="transform:translate(0, 0px); opacity:1" fill="url(#sw-gradient-0)" d="M0,51L34.3,48.2C68.6,45,137,40,206,53.8C274.3,68,343,102,411,116.2C480,130,549,125,617,113.3C685.7,102,754,85,823,65.2C891.4,45,960,23,1029,34C1097.1,45,1166,91,1234,110.5C1302.9,130,1371,125,1440,116.2C1508.6,108,1577,96,1646,102C1714.3,108,1783,130,1851,127.5C1920,125,1989,96,2057,76.5C2125.7,57,2194,45,2263,56.7C2331.4,68,2400,102,2469,110.5C2537.1,119,2606,102,2674,87.8C2742.9,74,2811,62,2880,48.2C2948.6,34,3017,17,3086,17C3154.3,17,3223,34,3291,42.5C3360,51,3429,51,3497,48.2C3565.7,45,3634,40,3703,53.8C3771.4,68,3840,102,3909,116.2C3977.1,130,4046,125,4114,124.7C4182.9,125,4251,130,4320,130.3C4388.6,130,4457,125,4526,119C4594.3,113,4663,108,4731,90.7C4800,74,4869,45,4903,31.2L4937.1,17L4937.1,170L4902.9,170C4868.6,170,4800,170,4731,170C4662.9,170,4594,170,4526,170C4457.1,170,4389,170,4320,170C4251.4,170,4183,170,4114,170C4045.7,170,3977,170,3909,170C3840,170,3771,170,3703,170C3634.3,170,3566,170,3497,170C3428.6,170,3360,170,3291,170C3222.9,170,3154,170,3086,170C3017.1,170,2949,170,2880,170C2811.4,170,2743,170,2674,170C2605.7,170,2537,170,2469,170C2400,170,2331,170,2263,170C2194.3,170,2126,170,2057,170C1988.6,170,1920,170,1851,170C1782.9,170,1714,170,1646,170C1577.1,170,1509,170,1440,170C1371.4,170,1303,170,1234,170C1165.7,170,1097,170,1029,170C960,170,891,170,823,170C754.3,170,686,170,617,170C548.6,170,480,170,411,170C342.9,170,274,170,206,170C137.1,170,69,170,34,170L0,170Z"/></svg>